<svg xmlns="http://www.w3.org/2000/svg" viewBox="0 0 401.47 376.43"><defs><style>.cls-1{fill:#f1c40f;stroke-width:6px;}.cls-1,.cls-3,.cls-4{stroke:#000;stroke-linejoin:round;}.cls-2{fill:#b5930b;}.cls-3{fill:#c0392b;stroke-width:8px;}.cls-4{fill:#902b20;stroke-width:4px;}</style></defs><title>level-2-medal</title><g id="Layer_2" data-name="Layer 2"><g id="Layer_2-2" data-name="Layer 2"><path class="cls-1" d="M327.9,203.69c-85.9-11-170.83-12.85-254.34-1.22-7.76-37.08-9.55-85-1.82-148.21,45-1.1,87.88-20.33,129.41-51.26C238.27,34.22,282,50.59,331.41,54.26,336.88,119.53,335,167.44,327.9,203.69Z"/><path class="cls-1" d="M287.69,289.63c-13.6,14.74-29.19,25.62-45.39,36.18-13.42,8.75-27.25,17.28-40.73,27.61-11.92-9.06-27-17.11-42.74-27.22-15-9.6-30.48-21.06-44.42-37A575,575,0,0,1,287.69,289.63Z"/><path class="cls-2" d="M201.13,6.92l.54,342.42C91,288.68,58,232.48,74.4,57.62,120.29,54.53,160.42,36.21,201.13,6.92Z"/><path d="M200.46,135.06a28.74,28.74,0,0,0,6.3-6.52,12.94,12.94,0,0,0,2.48-7.43,11.94,11.94,0,0,0-2.81-7.87q-2.82-3.37-8.89-3.37a13.42,13.42,0,0,0-10.8,5.18Q182.46,120.21,182,129l-51.07-5.85q1.57-15.52,8.1-26.77a62.42,62.42,0,0,1,16.31-18.67,66.34,66.34,0,0,1,21.83-10.91A88.93,88.93,0,0,1,202,63.28a95,95,0,0,1,23.29,2.92,63.42,63.42,0,0,1,20.59,9.11,48,48,0,0,1,14.63,16.09q5.62,9.9,5.63,23.85a53.71,53.71,0,0,1-2.59,17.44,48.23,48.23,0,0,1-7,13.39,66.14,66.14,0,0,1-9.9,10.58q-5.52,4.72-11.59,9l-23.4,16.65h54.9v44.77H137.46V185.46Z"/><path class="cls-3" d="M371.74,210l-23.07,63.1L339,299.64q-25.84-6.15-51.28-10a575,575,0,0,0-173.28-.46q-26.59,4-52.75,10.47l-9.4-25.72L28.89,210q22.26-4.46,44.67-7.55c83.51-11.63,168.44-9.74,254.34,1.22Q349.77,206.46,371.74,210Z"/><path class="cls-4" d="M158.83,326.2c-40.29,7-80,23.76-120.7,48.23l-5-47.06L2,294.6q25.14-11.77,50.26-20.68l9.4,25.72q26.16-6.45,52.75-10.47C128.35,305.14,143.88,316.6,158.83,326.2Z"/><path class="cls-4" d="M399.47,294.6l-31.93,33.61-4.2,46.22c-42.57-26.5-82.51-42.21-121-48.62,16.2-10.56,31.79-21.44,45.39-36.18q25.44,3.87,51.28,10l9.7-26.52A505.33,505.33,0,0,1,399.47,294.6Z"/></g></g></svg>