<svg xmlns="http://www.w3.org/2000/svg" viewBox="0 0 401.47 376.43"><defs><style>.cls-1{fill:#f1c40f;stroke-width:6px;}.cls-1,.cls-3,.cls-4{stroke:#000;stroke-linejoin:round;}.cls-2{fill:#b5930b;}.cls-3{fill:#c0392b;stroke-width:8px;}.cls-4{fill:#902b20;stroke-width:4px;}</style></defs><title>medal-level-0</title><g id="Layer_2" data-name="Layer 2"><g id="Layer_2-2" data-name="Layer 2"><path class="cls-1" d="M327.9,203.69c-85.9-11-170.83-12.85-254.34-1.22-7.76-37.08-9.55-85-1.82-148.21,45-1.1,87.88-20.33,129.41-51.26C238.27,34.22,282,50.59,331.41,54.26,336.88,119.53,335,167.44,327.9,203.69Z"/><path class="cls-1" d="M287.69,289.63c-13.6,14.74-29.19,25.62-45.39,36.18-13.42,8.75-27.25,17.28-40.73,27.61-11.92-9.06-27-17.11-42.74-27.22-15-9.6-30.48-21.06-44.42-37A575,575,0,0,1,287.69,289.63Z"/><path class="cls-2" d="M201.13,6.92l.54,342.42C91,288.68,58,232.48,74.4,57.62,120.29,54.53,160.42,36.21,201.13,6.92Z"/><path d="M201.36,231.58q-14.63,0-25.65-3.83a60.13,60.13,0,0,1-18.9-10.35,61.28,61.28,0,0,1-13.16-15.08,81.48,81.48,0,0,1-8.33-18,106.35,106.35,0,0,1-4.27-19.12,147,147,0,0,1-1.24-18.67,145.41,145.41,0,0,1,1.24-18.45,101.36,101.36,0,0,1,4.27-18.9,78.29,78.29,0,0,1,8.33-17.55A59.43,59.43,0,0,1,156.81,77a61.23,61.23,0,0,1,18.9-10,80.39,80.39,0,0,1,25.65-3.71q22,0,36,8a61.92,61.92,0,0,1,21.83,20.25,77.43,77.43,0,0,1,10.8,27,144.28,144.28,0,0,1,2.92,28,148.78,148.78,0,0,1-1.24,18.56,106.38,106.38,0,0,1-4.28,19.24,84.75,84.75,0,0,1-8.21,18A58.48,58.48,0,0,1,246,217.41a61.65,61.65,0,0,1-19,10.35A78.27,78.27,0,0,1,201.36,231.58Zm0-122.17a10.58,10.58,0,0,0-8.1,3.38,23.54,23.54,0,0,0-4.95,8.77,55.82,55.82,0,0,0-2.48,12,127.87,127.87,0,0,0-.68,12.94q0,6.53.68,13.39a60.11,60.11,0,0,0,2.48,12.49,24.49,24.49,0,0,0,4.95,9.11,10.41,10.41,0,0,0,8.1,3.49,10.76,10.76,0,0,0,8.21-3.49,22.61,22.61,0,0,0,5-9.11,65.92,65.92,0,0,0,2.36-12.49q.67-6.86.67-13.39a128.15,128.15,0,0,0-.67-12.94,61.17,61.17,0,0,0-2.36-12,21.71,21.71,0,0,0-5-8.77A11,11,0,0,0,201.36,109.41Z"/><path class="cls-3" d="M371.74,210l-23.07,63.1L339,299.64q-25.84-6.15-51.28-10a575,575,0,0,0-173.28-.46q-26.59,4-52.75,10.47l-9.4-25.72L28.89,210q22.26-4.46,44.67-7.55c83.51-11.63,168.44-9.74,254.34,1.22Q349.77,206.46,371.74,210Z"/><path class="cls-4" d="M158.83,326.2c-40.29,7-80,23.76-120.7,48.23l-5-47.06L2,294.6q25.14-11.77,50.26-20.68l9.4,25.72q26.16-6.45,52.75-10.47C128.35,305.14,143.88,316.6,158.83,326.2Z"/><path class="cls-4" d="M399.47,294.6l-31.93,33.61-4.2,46.22c-42.57-26.5-82.51-42.21-121-48.62,16.2-10.56,31.79-21.44,45.39-36.18q25.44,3.87,51.28,10l9.7-26.52A505.33,505.33,0,0,1,399.47,294.6Z"/></g></g></svg>