<svg xmlns="http://www.w3.org/2000/svg" viewBox="0 0 219.79 217.36"><defs><style>.cls-1{stroke:#fff;stroke-miterlimit:10;}</style></defs><title>bear-icon-2</title><g id="Layer_2" data-name="Layer 2"><g id="Layer_7" data-name="Layer 7"><g id="new-logo"><path d="M218,191.13c-3.92-11.12-4.49-11.7-11.44-12.08-3.6.33-1.93,9.28-4.72,11.93-1.64-.31-8.09,1.63-9.91.79s-.52-16.47.64-21.18c1.78-.08,2.88-.75,3-2.33.12-2-1.43-3.38-4-4.45,2-.74,3.77-1.59,3.6-3.18-3.84-2.78-7-6-8.69-10.17a3.85,3.85,0,0,0,4.66-1.27,29.67,29.67,0,0,1-11-11,6.39,6.39,0,0,0,4.66.21,29.47,29.47,0,0,1-10.59-11.65,6.07,6.07,0,0,0,5.72-.43,30.54,30.54,0,0,1-11.65-11.86c2.09,1.27,3.92,1.77,5.29.85-5.92-3.15-10.71-6.72-13.56-11,1.94,1.18,3.5,1.47,4.66.85C159,103,154.35,100.24,151,96.65c2.43.58,4.17.42,4.87-.84a24.58,24.58,0,0,1-11.23-10.17q3.09,1.57,4.87.42a27.22,27.22,0,0,1-7.84-12.92c2.22,1.91,4,2.38,5.51,1.69a34.31,34.31,0,0,1-8-14.11c2.2,2,4.27,2.69,6.26,2.44a37,37,0,0,1-8.9-13.32,9,9,0,0,0,7.2.63,38.27,38.27,0,0,1-10-15.89c7.34,1.51,15.68-4.12,14.42-17.14,0-.15,0-.31,0-.46.68-14.36-10.2-14.57-28-6.33C106.79,5.24,95.66,4.78,85.73,6.83,79-2.77,63.6-1.23,60.75,5.14c-1.55,3.09-3.62,16.7,6,18.63-1,9.2-5.53,15.52-12.22,20.12a15.44,15.44,0,0,0,9.1-1.19c-2.5,5.24-7.16,10.85-12.93,16.66a10.54,10.54,0,0,0,8-2.29c-2,5-6.24,10.38-11.86,16,1,2.17,4.27,2.19,10,0-1.28,5.53-5.08,10.9-11,16.13C49,89.94,52,89.9,55,87.38a32.33,32.33,0,0,1-10.36,13.06,9.74,9.74,0,0,0,7.77,0c-.87,3.93-4.76,9.43-9.28,15.28a10.41,10.41,0,0,0,6.35-1.91c-2,5.82-6.15,11.14-11.86,16.1a5.64,5.64,0,0,0,5.29,0c-1.47,4.84-6.43,9.92-12.07,15,2.25.11,4.56-.7,7-3.61-1.87,5.13-5.62,9.83-10.8,14.2a9.72,9.72,0,0,0,7.41-1.27c-2,6.1-5.12,11.18-10,14.83.8,2.16,2.2,3.44,4.66,3.17a17.11,17.11,0,0,1-7.2,8c2.28.76,3,2.44,1.7,5.3-1.35,2.23-1.07,3.6.21,4.45-1.17,2-3.88,3.89-8.1,5.51-1.42-5.12-2.6-9.22-7.09-10.52-6.49-2.62-11.2,18.33-7.27,28.52,7.55.43,33,1.29,64,1.73-1.64-.23-3.28-.49-4.93-.75-18.7-10.15-8.34-26.77-10.27-39.08,6,11.33,10,11.85,15.4,10.59-1.34-8,3.12-21-2.65-38.81,4.87,11,26.93,28.53,33,46.78-.17-3,.44-5.57,0-9.87,2.27,1.22,3.87,4.61,5.34,8.39l-1-10.37c2.54,1.17,4.07,4.19,5.36,7.64-2.06-24.53-24.21-50.29-22.06-54.79A98.76,98.76,0,0,0,94,150.78c2.08-9.31,18.52-29.47,22.26-39.68a59.63,59.63,0,0,0,.17,12c.73-1.84,2.54-2.92,5.47-3.25q-3.41,2.41-4,10c2.52,7.73,7.82,12.34,16.78,10.17-3.39,5.7-16,27.77-17.24,46.08,1.77-4.7,3.89-8.74,7.11-10.8-1.92,4.17-3.73,9.64-3.55,12.84,1.26-3.35,3.59-8.26,6.55-10.41-1.49,2.72-2.29,7.56-1.44,10.28,4.28-11.74,17.72-22.12,24.23-35.36-.29,3.83-6.43,12.86-7.7,16.11,2.39-2.23,12.08-7.62,13-10.3,3.52,5.25-12.14,32.35-.28,34.82,1.21-3.73,4.39-3.51,10.26-10.15-.5,10.23-4,20.75-9.48,31.46-.51.1-1,.21-1.54.3,32.36-1.06,58.32-3.45,63.45-8.15C221.71,203.27,218.64,195.86,218,191.13ZM80.27,62.1a4.14,4.14,0,0,1-6-.31c-3.24-3.53-2.73-5.84,1.41-7A4.39,4.39,0,0,1,81.14,58,4.08,4.08,0,0,1,80.27,62.1Zm32,13.51a1.83,1.83,0,0,1-.47,1.08,17.12,17.12,0,0,1-10.68,5.4l-.31-4c5.14-2.62,6.66-6.67,5-12-4.83-1.61-9.64-.86-14.42,1.64,2.07,7.82,4.64,10.84,7.72,9.19v5.34a36.62,36.62,0,0,1-12.65-2.13,1.08,1.08,0,0,1-.71-1.31,193.82,193.82,0,0,0,5.47-32.68,1.76,1.76,0,0,1,.61-1.21c2.4-2,6-3.83,10.22-5.62a1.79,1.79,0,0,1,1.76.19c2.4,1.71,4.5,3.5,5.54,5.68a1.6,1.6,0,0,1,.16.48C111.85,56.59,113.07,66.78,112.29,75.61Zm13.8-14.7a4.1,4.1,0,0,1-5.62,1.75,3.84,3.84,0,0,1-2.29-3.16,3.89,3.89,0,0,1,4-3.94C126.61,55.53,127.89,57.33,126.09,60.91Z"/><path class="cls-1" d="M130.27,192.12c-5.46,5.21-10.75,9.86-15,11.81,1-6.6-2.49-13.3-5.36-20.73-3.34,10.69-10.94,16.39-11.32,23.53-6.78-4.85-12.09-8.08-16.58-13a25.25,25.25,0,0,0,0,11.54c-2.43.39-5.56-.86-8.92-2.62,2.58,5.65,5.32,10.25,8.63,12.89l.29.23a347.87,347.87,0,0,0,55.63,0l.24-.44a52.69,52.69,0,0,0,6.58-21.08c-5.53,4-10.88,7.56-15.22,8.4A45.32,45.32,0,0,0,130.27,192.12Z"/></g></g></g></svg>