<svg xmlns="http://www.w3.org/2000/svg" viewBox="0 0 220.79 219.38"><defs><style>.cls-1{stroke:#000;}.cls-1,.cls-3{stroke-miterlimit:10;}.cls-2{fill:#fff;}.cls-3{stroke:#fff;}</style></defs><title>bear-icon</title><g id="Layer_2" data-name="Layer 2"><g id="Layer_7" data-name="Layer 7"><g id="new-logo"><path class="cls-1" d="M218.46,191.64c-3.93-11.12-4.49-11.7-11.45-12.08-3.6.33-1.92,9.29-4.71,11.93-1.64-.32-8.09,1.63-9.91.79s-.52-16.46.64-21.18c1.78-.08,2.89-.75,3-2.33.11-2-1.43-3.38-4-4.45,2-.74,3.78-1.59,3.6-3.18-3.84-2.78-7-6-8.69-10.17a3.86,3.86,0,0,0,4.66-1.27,29.67,29.67,0,0,1-11-11,6.33,6.33,0,0,0,4.66.21,29.5,29.5,0,0,1-10.59-11.65,6.09,6.09,0,0,0,5.72-.42A30.65,30.65,0,0,1,168.66,115c2.09,1.27,3.93,1.77,5.3.85-5.92-3.14-10.72-6.71-13.56-11,1.94,1.18,3.5,1.47,4.66.85-5.58-2.13-10.2-4.89-13.56-8.47,2.43.57,4.17.41,4.87-.85a24.57,24.57,0,0,1-11.23-10.17c2.06,1,3.68,1.19,4.87.42a27.19,27.19,0,0,1-7.84-12.92c2.22,1.91,4,2.38,5.51,1.69a34.45,34.45,0,0,1-8-14.11c2.2,2,4.27,2.69,6.26,2.44a37,37,0,0,1-8.9-13.32,9,9,0,0,0,7.2.64,38.34,38.34,0,0,1-10-15.89C141.68,36.6,150,31,148.77,17.94a3.23,3.23,0,0,1,0-.46c.68-14.37-10.2-14.58-28-6.34C107.29,5.74,96.17,5.29,86.24,7.34c-6.72-9.61-22.13-8.06-25-1.69-1.55,3.1-3.62,16.7,6,18.63-1,9.2-5.53,15.52-12.22,20.12a15.49,15.49,0,0,0,9.1-1.2C61.62,48.44,57,54.06,51.18,59.86a10.54,10.54,0,0,0,8-2.29c-2,5-6.24,10.39-11.86,16.05,1,2.17,4.27,2.19,9.94,0-1.28,5.53-5.08,10.9-11,16.13,3.18.7,6.14.65,9.23-1.87a32.35,32.35,0,0,1-10.37,13.06,9.78,9.78,0,0,0,7.78,0c-.87,3.92-4.76,9.43-9.29,15.28A10.44,10.44,0,0,0,50,114.32c-2,5.81-6.15,11.13-11.86,16.1a5.69,5.69,0,0,0,5.3,0c-1.47,4.84-6.43,9.92-12.08,15,2.25.12,4.56-.69,7-3.6-1.87,5.12-5.62,9.82-10.8,14.19A9.72,9.72,0,0,0,35,154.78c-2,6.1-5.12,11.18-10,14.83.8,2.17,2.2,3.45,4.66,3.18a17.22,17.22,0,0,1-7.2,8.05c2.28.76,3,2.43,1.69,5.3-1.35,2.23-1.06,3.6.21,4.45-1.17,2.06-3.88,3.89-8.1,5.51-1.43-5.12-2.6-9.22-7.09-10.52C2.72,183-2,203.9,1.94,214.1c22.36,1.25,202.08,6.36,216.52-6.88C222.22,203.77,219.15,196.37,218.46,191.64ZM80.78,62.61a4.16,4.16,0,0,1-6-.31c-3.24-3.53-2.73-5.85,1.41-7a4.39,4.39,0,0,1,5.43,3.21A4.09,4.09,0,0,1,80.78,62.61Zm32,13.5a1.82,1.82,0,0,1-.48,1.08,17.11,17.11,0,0,1-10.68,5.4l-.31-4c5.15-2.62,6.67-6.67,5-12-4.83-1.61-9.64-.86-14.42,1.64C94,76,96.56,79.08,99.63,77.42v5.34A36.72,36.72,0,0,1,87,80.64a1.1,1.1,0,0,1-.71-1.32,193.26,193.26,0,0,0,5.47-32.68,1.76,1.76,0,0,1,.61-1.21c2.41-2,6-3.82,10.22-5.62a1.81,1.81,0,0,1,1.76.19c2.41,1.71,4.5,3.5,5.55,5.68a2.14,2.14,0,0,1,.16.48C112.35,57.1,113.58,67.29,112.8,76.11Zm13.79-14.7A4.1,4.1,0,0,1,121,63.16,3.82,3.82,0,0,1,118.69,60a3.88,3.88,0,0,1,4-3.94C127.11,56,128.39,57.84,126.59,61.41Z"/><path class="cls-2" d="M61,215.07C42.34,204.93,52.69,188.3,50.77,176c6,11.32,10,11.84,15.39,10.58-1.33-8,3.12-21-2.65-38.81,4.87,11,26.93,28.53,33,46.78-.17-3,.44-5.57,0-9.87,2.27,1.22,3.87,4.62,5.34,8.39l-1-10.36c2.54,1.16,4.07,4.18,5.36,7.64-2.06-24.53-24.21-50.29-22.06-54.79a98.45,98.45,0,0,0,10.26,15.73C96.54,142,113,121.81,116.71,111.6c-1.35,17.18,3.4,32.53,18.39,28.9-3.39,5.7-16.05,27.77-17.24,46.08,1.76-4.7,3.89-8.74,7.11-10.8-1.93,4.17-3.73,9.64-3.56,12.84,1.27-3.35,3.59-8.25,6.56-10.41-1.49,2.72-2.29,7.57-1.45,10.29,4.28-11.75,17.73-22.13,24.23-35.37-.28,3.83-6.43,12.86-7.7,16.12,2.39-2.23,12.08-7.62,13-10.3,3.52,5.25-12.14,32.35-.29,34.81,1.22-3.73,4.4-3.51,10.26-10.15-.49,10.23-4,20.75-9.47,31.46C126.74,221.16,94.66,220.47,61,215.07Z"/><path class="cls-2" d="M116.62,124.5c-1.78,4.16-.63,6.05,1.61,7.11q.45-8.64,4.12-11.25Q117.31,120.92,116.62,124.5Z"/><path class="cls-3" d="M82.5,216.24a346,346,0,0,0,55.62,0,53,53,0,0,0,6.82-21.51c-5.53,4-10.88,7.56-15.22,8.4a45.42,45.42,0,0,0,1-10.49c-5.46,5.2-10.75,9.86-15,11.81,1-6.6-2.49-13.3-5.36-20.73-3.35,10.69-10.95,16.39-11.32,23.53-6.78-4.85-12.1-8.08-16.58-13a25.05,25.05,0,0,0,0,11.54c-2.43.39-5.57-.87-8.92-2.62C76.23,208.94,79.06,213.65,82.5,216.24Z"/></g></g></g></svg>