<?xml version="1.0" encoding="utf-8"?>
<!-- Generator: Adobe Illustrator 21.0.0, SVG Export Plug-In . SVG Version: 6.00 Build 0)  -->
<svg version="1.1" id="Layer_2" xmlns="http://www.w3.org/2000/svg" xmlns:xlink="http://www.w3.org/1999/xlink" x="0px" y="0px"
	 viewBox="0 0 500 500" style="enable-background:new 0 0 500 500;" xml:space="preserve">
<style type="text/css">
	.st0{fill:#C1272D;stroke:#000000;stroke-width:11;stroke-miterlimit:10;}
	.st1{fill:#F1C40F;stroke:#000000;stroke-width:11;stroke-miterlimit:10;}
	.st2{fill:#F7F7F7;stroke:#000000;stroke-width:9;stroke-miterlimit:10;}
	.st3{fill:#C1272D;stroke:#000000;stroke-width:8;stroke-miterlimit:10;}
	.st4{stroke:#000000;stroke-width:11;stroke-miterlimit:10;}
	.st5{stroke:#000000;stroke-width:7;stroke-miterlimit:10;}
</style>
<path class="st0" d="M379.3,415.8c-25.1,8.1-50.4,14-75.9,17.6c-30,4.3-60.2,5.5-90.6,3.5l0,0h0c-24-1.6-48.1-5.1-72.4-10.7
	l15.6-38.1c2,0.8,4,1.6,6,2.3c13.7,4.7,28.3,6.3,42.3,3.5c24.1-4.8,43.6-9.4,59.3-13.8c13.3,6,29.6,10.2,49.1,12.5
	c12.5,1.4,24.9-0.5,36.4-5.1c5.8-2.3,11.3-5.2,16.5-8.8L379.3,415.8z"/>
<path class="st1" d="M403.8,451.9c-3.3,1.3-6.5,2.5-9.8,3.8c-90.3,33.7-180.4,41.4-270.2,11.1c-4.4-1.5-8.9-3.1-13.3-4.8l11.8-40.3
	c6,1.6,12.1,3.2,18.1,4.5c24.3,5.6,48.4,9.1,72.4,10.7h0l0,0c30.4,2,60.6,0.8,90.6-3.5c25.4-3.6,50.7-9.5,75.9-17.6
	c3.4-1.1,6.8-2.2,10.2-3.4L403.8,451.9z"/>
<path class="st0" d="M414.7,511.5l-310.9,4.2l20-49c89.8,30.3,179.9,22.6,270.2-11.1L414.7,511.5z"/>
<path class="st0" d="M117.7,437.2"/>
<path class="st0" d="M282.2,344.7v10.9c-23.4,16.6-46.7,15.5-70.1-3.1v0c-0.4-0.3-0.9-0.7-1.3-1.1v-10.1c0.3,0.2,0.6,0.4,0.9,0.6
	C235.5,357.3,259,358.6,282.2,344.7z"/>
<path class="st0" d="M282.2,344.7v10.9c-23.4,16.6-46.7,15.5-70.1-3.1v0c-0.4-0.3-0.9-0.7-1.3-1.1v-10.1c0.3,0.2,0.6,0.4,0.9,0.6
	C235.5,357.3,259,358.6,282.2,344.7z"/>
<path class="st0" d="M346,210.2c0,7-5.6,12.6-12.6,12.6c-7,0-12.6-5.7-12.6-12.6c0-7,5.6-12.6,12.6-12.6
	C340.4,197.6,346,203.2,346,210.2z"/>
<path class="st0" d="M186.1,212.5c0,7-5.6,12.6-12.6,12.6c-7,0-12.6-5.6-12.6-12.6c0-7,5.6-12.6,12.6-12.6
	C180.5,199.9,186.1,205.5,186.1,212.5z"/>
<path class="st0" d="M282.2,344.7v10.9c-23.4,16.6-46.7,15.5-70.1-3.1v0c-0.4-0.3-0.9-0.7-1.3-1.1v-10.1c0.3,0.2,0.6,0.4,0.9,0.6
	C235.5,357.3,259,358.6,282.2,344.7z"/>
<path class="st0" d="M186.1,212.5c0,7-5.6,12.6-12.6,12.6c-7,0-12.6-5.6-12.6-12.6c0-7,5.6-12.6,12.6-12.6
	C180.5,199.9,186.1,205.5,186.1,212.5z"/>
<path class="st0" d="M282.2,344.7v10.9c-23.4,16.6-46.7,15.5-70.1-3.1v0c-0.4-3.4-0.5-7-0.4-10.6C235.5,357.3,259,358.6,282.2,344.7
	z"/>
<path class="st2" d="M333.5,268.7c-8.8-12-19.5-22.2-31.7-29.9c-3.8-2.4-7.7-4.5-11.7-6.4c-2.2-16.7-7.1-38.6-15.5-66.9
	C264,105.2,266,54.8,255.3,54.8c-10.7,0-0.1,52.7-19.3,110.7c-12.9,28.2-20.5,48.8-24.3,63.9c-5.2,2-10.2,4.3-15,7.1
	c-14.7,8.4-27.4,20.3-37.4,34.8c-14.6,21.1-23.3,47.6-23.3,76.4c0,22.5,5.3,43.7,14.7,62c1.3,2.4,2.6,4.8,4,7.2
	c13.7,4.7,28.3,6.3,42.3,3.5c24.1-4.8,43.6-9.4,59.3-13.8c13.3,6,29.6,10.2,49.1,12.5c12.5,1.4,24.9-0.5,36.4-5.1
	c4.3-7.7,7.9-16,10.6-24.7c4.1-13,6.3-27,6.3-41.6C358.7,317.7,349.2,290.2,333.5,268.7z M282.2,356.1c0,1-0.6,1.9-1.5,2.4
	c-22.9,12.7-45.7,11.6-68.6-3.4v0c0,0,0,0,0,0c-0.8-0.5-0.3-1.2-1.3-2.3c-2.7-3-2.2-8.2,0-6.9c0.3,0.2,0.6-0.5,0.9,0.5
	c3.4,9.9,45.8,18,65.4,4.6c2.1-1.4,5.1,0.4,5.1,2.6V356.1z M270.9,301.4c-1.4,1.2-2.8,2.3-4.4,3.4c-0.9-0.1-1.9-0.2-2.9-0.2
	c-7.4,0-13.4,3.9-13.4,8.7c0,2.7,1.9,5.1,4.8,6.7c-0.9,5.8-4.2,10.1-9.8,13c-7.1-5.7-11.2-11.4-12-16.9c0.1-0.5,0.1-1.1,0.1-1.6
	c0-5.4-3.5-9.8-7.9-9.8c-0.1,0-0.2,0-0.4,0c-0.4-0.3-0.9-0.6-1.3-0.9c-9.7-7-15.8-16.3-18.9-27.5c2.8-1.7,5.5-3.2,8.3-4.5
	c0.9-0.4,1.8-0.9,2.7-1.3c1.3-0.6,2.5-1.1,3.8-1.7c19.1-7.9,37-8.3,53.8-1c1.3,0.5,2.5,1.1,3.8,1.8c3.4,1.7,6.7,3.7,9.9,6
	c0.3,0.2,0.6,0.5,1,0.7C284.7,285.3,279.8,294,270.9,301.4z"/>
<path class="st3" d="M396.5,324.2c-6.1-41.5-15.7-76.5-26.7-101c4.6-21.7,12.3-45.4,20.6-70.2c-12.2-23.2-21.7-46.9-25.9-71.3
	C350.9,59.3,353.7,43,371.1,32c-14.2,0.8-28.5,3.4-42.7,6.8c-45.8-45.5-94-25.1-142.3-5l-18,4.7c11.1,14.3,7.8,31.8-10.3,52.4
	c-14.3,27.9-30.1,49.6-47.7,64.6c11.5,33,20.2,63.8,23.9,90.6v0c-13.5,25.2-26.8,54.2-37.5,81.3c-13.3,33.7,15.2,71.5,52.2,87
	c2,0.8,4,1.6,6,2.3c-1.4-2.3-2.7-4.7-4-7.2c-9.3-18.3-14.7-39.4-14.7-62c0-28.8,8.7-55.3,23.3-76.4c10-14.5,22.8-26.4,37.4-34.8
	c4.8-2.7,9.8-5.1,15-7.1c3.7-15,11.3-35.6,24.3-63.9c19.2-58,8.7-110.7,19.3-110.7c10.7,0,8.7,50.5,19.3,110.7
	c8.5,28.4,13.3,50.2,15.5,66.9c4,1.9,7.9,4,11.7,6.4c12.2,7.7,22.9,17.8,31.7,29.9c15.7,21.5,25.1,49,25.1,79
	c0,14.6-2.2,28.6-6.3,41.6c-2.7,8.7-6.3,17-10.6,24.7c5.8-2.3,11.3-5.2,16.5-8.8C384,387.7,401.3,356.5,396.5,324.2z M173.5,225.1
	c-7,0-12.6-5.6-12.6-12.6c0-7,5.6-12.6,12.6-12.6c7,0,12.6,5.6,12.6,12.6C186.1,219.5,180.5,225.1,173.5,225.1z M333.5,222.8
	c-7,0-12.6-5.7-12.6-12.6c0-7,5.6-12.6,12.6-12.6c7,0,12.6,5.6,12.6,12.6C346,217.2,340.4,222.8,333.5,222.8z"/>
<path class="st0" d="M346,210.2c0,7-5.6,12.6-12.6,12.6c-7,0-12.6-5.7-12.6-12.6c0-7,5.6-12.6,12.6-12.6
	C340.4,197.6,346,203.2,346,210.2z"/>
<path class="st4" d="M173.5,199.9c-7,0-12.6,5.6-12.6,12.6c0,7,5.6,12.6,12.6,12.6c7,0,12.6-5.6,12.6-12.6
	C186.1,205.5,180.5,199.9,173.5,199.9z M333.5,197.6c-7,0-12.6,5.6-12.6,12.6c0,7,5.6,12.6,12.6,12.6c7,0,12.6-5.7,12.6-12.6
	C346,203.2,340.4,197.6,333.5,197.6z M422.4,38.5c0.3,0.3,0.6,0.6,0.8,0.9c0-0.2,0.1-0.4,0.1-0.5C423,38.7,422.7,38.6,422.4,38.5z"
	/>
<path class="st0" d="M81.4,61.1c-1.2,4.4-2.2,8.6-3.1,12.6c-1.5-3.5-3-7.1-4.5-10.6L81.4,61.1z"/>
<path class="st4" d="M447.8,75.7c-1.1,52.7-17.1,85.1-45.2,100.8c-8.6-9.8-16.7-19.6-24-29.5c-17.3-23.2-30.6-46.9-36.6-71.3
	c-19.3-22.3-15.4-38.6,9.3-49.6c9.1-4.1,21.1-7.4,35.8-10c13.8,4.1,26.5,9.1,36.7,16.5c0.4,0.3,0.8,0.6,1.2,0.9
	C437.6,42.9,446.2,56.1,447.8,75.7z"/>
<path class="st4" d="M154.7,87.5c-16.1,29-33.9,51.7-53.7,67.3c-8.4,6.6-17.1,11.9-26.1,15.9c-12.1-26-20.7-55.1-9.7-101
	c1-4.2,2.2-8.6,3.5-13.2c0.2-0.6,0.3-1.1,0.5-1.7c1.8-22.3,23.6-36.4,62.1-43.5c16.4,6.2,28.1,13.4,34.9,21.5
	C178.8,47.8,175.1,66,154.7,87.5z"/>
<path class="st5" d="M288.1,276.2c-3.4,9.1-8.3,17.8-17.2,25.2c-1.4,1.2-2.8,2.3-4.4,3.4c-0.9-0.1-1.9-0.2-2.9-0.2
	c-7.4,0-13.4,3.9-13.4,8.7c0,2.7,1.9,5.1,4.8,6.7c-0.9,5.8-4.2,10.1-9.8,13c-7.1-5.7-11.2-11.4-12-16.9c0.1-0.5,0.1-1.1,0.1-1.6
	c0-5.4-3.5-9.8-7.9-9.8c-0.1,0-0.2,0-0.4,0c-0.4-0.3-0.9-0.6-1.3-0.9c-9.7-7-15.8-16.3-18.9-27.5c2.8-1.7,5.5-3.2,8.3-4.5
	c0.9-0.4,1.8-0.9,2.7-1.3c1.3-0.6,2.5-1.1,3.8-1.7c19.1-7.9,37-8.3,53.8-1c1.3,0.5,2.5,1.1,3.8,1.8c3.4,1.7,6.7,3.7,9.9,6
	C287.4,275.7,287.8,276,288.1,276.2z"/>
<path class="st2" d="M469.7,312.2"/>
</svg>
