<svg xmlns="http://www.w3.org/2000/svg" viewBox="0 0 401.47 376.43"><defs><style>.cls-1{fill:#f1c40f;stroke-width:6px;}.cls-1,.cls-3,.cls-4{stroke:#000;stroke-linejoin:round;}.cls-2{fill:#b5930b;}.cls-3{fill:#c0392b;stroke-width:8px;}.cls-4{fill:#902b20;stroke-width:4px;}</style></defs><title>level-3-medal</title><g id="Layer_2" data-name="Layer 2"><g id="Layer_2-2" data-name="Layer 2"><path class="cls-1" d="M327.9,203.69c-85.9-11-170.83-12.85-254.34-1.22-7.76-37.08-9.55-85-1.82-148.21,45-1.1,87.88-20.33,129.41-51.26C238.27,34.22,282,50.59,331.41,54.26,336.88,119.53,335,167.44,327.9,203.69Z"/><path class="cls-1" d="M287.69,289.63c-13.6,14.74-29.19,25.62-45.39,36.18-13.42,8.75-27.25,17.28-40.73,27.61-11.92-9.06-27-17.11-42.74-27.22-15-9.6-30.48-21.06-44.42-37A575,575,0,0,1,287.69,289.63Z"/><path class="cls-2" d="M201.13,6.92l.54,342.42C91,288.68,58,232.48,74.4,57.62,120.29,54.53,160.42,36.21,201.13,6.92Z"/><path d="M242.54,143.61a42.11,42.11,0,0,1,11.14,5.63,39.82,39.82,0,0,1,8.66,8.33,36.68,36.68,0,0,1,5.51,10.24,33.86,33.86,0,0,1,1.91,11.14q0,14-5.85,24a50.16,50.16,0,0,1-15.3,16.42,65.42,65.42,0,0,1-21.37,9.34,100.86,100.86,0,0,1-24.08,2.92,103.16,103.16,0,0,1-24-2.81,72.44,72.44,0,0,1-21.6-8.89,66.26,66.26,0,0,1-17.1-15.3,56.73,56.73,0,0,1-10.46-22l50-11.7a21.4,21.4,0,0,0,6.64,10.8q5.28,5,13.61,5A21.3,21.3,0,0,0,205,186a14.8,14.8,0,0,0,4.5-1.8,10.73,10.73,0,0,0,3.38-3.26,9.14,9.14,0,0,0,1.35-5.17q0-7.2-6.3-9.45T191,164.08h-15.3v-36.9h17.1q8.55,0,13.73-2.36t5.17-9.11q0-5.17-4-7.2a18.88,18.88,0,0,0-8.55-2A17.05,17.05,0,0,0,188.76,110a15.22,15.22,0,0,0-5.85,10.24l-49.72-10.58a62.84,62.84,0,0,1,11.47-21.94,61.38,61.38,0,0,1,17-14.29,72.61,72.61,0,0,1,20.48-7.76,101.31,101.31,0,0,1,21.49-2.36,97.42,97.42,0,0,1,21.83,2.59,66.87,66.87,0,0,1,20.47,8.32A48.46,48.46,0,0,1,261,88.82q5.85,8.89,5.85,21.49,0,13.5-7.09,21.49a35.9,35.9,0,0,1-17.21,10.91Z"/><path class="cls-3" d="M371.74,210l-23.07,63.1L339,299.64q-25.84-6.15-51.28-10a575,575,0,0,0-173.28-.46q-26.59,4-52.75,10.47l-9.4-25.72L28.89,210q22.26-4.46,44.67-7.55c83.51-11.63,168.44-9.74,254.34,1.22Q349.77,206.46,371.74,210Z"/><path class="cls-4" d="M158.83,326.2c-40.29,7-80,23.76-120.7,48.23l-5-47.06L2,294.6q25.14-11.77,50.26-20.68l9.4,25.72q26.16-6.45,52.75-10.47C128.35,305.14,143.88,316.6,158.83,326.2Z"/><path class="cls-4" d="M399.47,294.6l-31.93,33.61-4.2,46.22c-42.57-26.5-82.51-42.21-121-48.62,16.2-10.56,31.79-21.44,45.39-36.18q25.44,3.87,51.28,10l9.7-26.52A505.33,505.33,0,0,1,399.47,294.6Z"/></g></g></svg>